<?xml version="1.0" encoding="UTF-8"?>
<svg width="184px" height="48px" viewBox="0 0 184 48" version="1.1" xmlns="http://www.w3.org/2000/svg" xmlns:xlink="http://www.w3.org/1999/xlink">
    <!-- Generator: Sketch 41.2 (35397) - http://www.bohemiancoding.com/sketch -->
    <title>logo</title>
    <desc>Created with Sketch.</desc>
    <defs></defs>
    <g id="Page-1" stroke="none" stroke-width="1" fill="none" fill-rule="evenodd">
        <g id="landing-page-2" transform="translate(-113.000000, -87.000000)">
            <g id="orange-line-logo" transform="translate(113.000000, 87.000000)">
                <g id="Group">
                    <g id="Page-1">
                        <g id="landing-page-2">
                            <g id="logo">
                                <path d="M32.2299757,23.0848314 C32.7600389,23.0848314 33.4091722,23.4540848 33.6808616,23.9112754 L39.8030811,34.213556 C40.0743202,34.6699885 39.8656888,35.04 39.3354176,35.04 L8.77544418,35.04 C8.24592179,35.04 8.03676486,34.6696128 8.30711162,34.2146818 L12.2993304,27.4967002 C12.5701999,27.0408894 13.2188863,26.6713819 13.7484568,26.6713819 L13.6225859,26.6713819 C14.1520468,26.6713819 14.3613919,27.0413688 14.0909423,27.496473 L11.1133766,32.5070277 C10.8425817,32.962713 11.0531887,33.3321187 11.5831462,33.3321187 L36.5277157,33.3321187 C37.0579571,33.3321187 37.268124,32.9624502 36.9966163,32.5055656 L32.904373,25.6192658 C32.6330981,25.1627731 31.982959,24.7927126 31.4539203,24.7927126 L14.8654648,24.7927126 C14.3356766,24.7927126 14.1252408,24.4241152 14.3974307,23.9660824 L23.5641987,8.54053048 C23.8354987,8.0839952 24.2756502,8.08447859 24.5454579,8.53850246 L29.553451,16.9657973 C29.8240854,17.4212125 29.6143747,17.7903995 29.0848042,17.7903995 L29.210675,17.7903995 C28.6812141,17.7903995 28.032284,17.4206662 27.7623882,16.9664939 L24.545044,11.5524473 C24.2746382,11.0974168 23.8356746,11.0983408 23.5651064,11.5536443 L17.202923,22.2597286 C16.9321243,22.7154203 17.1417509,23.0848314 17.6727928,23.0848314 L31.1954088,23.0848314 L33.1153675,23.0848314 L32.2299757,23.0848314 Z M31.7741411,20.8302171 C31.5736664,20.5386178 31.1249656,20.3022298 30.770421,20.3022298 L30.0091456,20.3022298 C29.6552808,20.3022298 29.5305483,20.5380574 29.7314082,20.8302171 L30.1626925,21.45754 C30.363167,21.7491394 30.811868,21.9855274 31.1664126,21.9855274 L31.927688,21.9855274 C32.2815528,21.9855274 32.4062853,21.7496997 32.2054254,21.45754 L31.7741411,20.8302171 Z" id="Combined-Shape" fill="#F77800"></path>
                                <path d="M24,46.72 C36.5479094,46.72 46.72,36.5479094 46.72,24 C46.72,11.4520905 36.5479094,1.28 24,1.28 C11.4520905,1.28 1.28,11.4520905 1.28,24 C1.28,36.5479094 11.4520905,46.72 24,46.72 Z M24,48 C10.745166,48 0,37.2548339 0,24 C0,10.745166 10.745166,0 24,0 C37.2548339,0 48,10.745166 48,24 C48,37.2548339 37.2548339,48 24,48 Z" id="Oval" fill="#F77800"></path>
                                <text id="SLOPEJUNKIE" font-family="NunitoSans-Regular, Nunito Sans" font-size="20" font-weight="normal" fill="#656565">
                                    <tspan x="57" y="30">SLOPEJUNKIE</tspan>
                                </text>
                            </g>
                        </g>
                    </g>
                </g>
            </g>
        </g>
    </g>
</svg>